PathFileType	4	(X/Y/Z)	./resultDataOpenSim/trcMotMarkerGrf/sub06/qtm-01-08.trc
DataRate	CameraRate	NumFrames	NumMarkers	Units	OrigDataRate	OrigDataStartFrame	OrigNumFrames
250.000000	250.000000	5	24	m	250.000000	60	473
Frame#	Time	L.Toe.Tip			R.Toe.Tip			L.Ankle.Lat			R.Ankle.Lat			L.Ankle.Med			R.Ankle.Med			L.Heel			R.Heel			L.Knee.Lat			R.Knee.Lat			L.Knee.Med			R.Knee.Med			L.Thigh.Upper			R.Thigh.Upper			L.ASIS			R.ASIS			V.Sacral			L.Acromium			R.Acromium			C7			L.Elbow			R.Elbow			L.Wrist.Lat			R.Wrist.Lat
		X1	Y1	Z1	X2	Y2	Z2	X3	Y3	Z3	X4	Y4	Z4	X5	Y5	Z5	X6	Y6	Z6	X7	Y7	Z7	X8	Y8	Z8	X9	Y9	Z9	X10	Y10	Z10	X11	Y11	Z11	X12	Y12	Z12	X13	Y13	Z13	X14	Y14	Z14	X15	Y15	Z15	X16	Y16	Z16	X17	Y17	Z17	X18	Y18	Z18	X19	Y19	Z19	X20	Y20	Z20	X21	Y21	Z21	X22	Y22	Z22	X23	Y23	Z23	X24	Y24	Z24

60	0.236	-1.3499073	0.076843784	-0.066528125	-0.68706367	0.035958739	0.096379898	-1.3283394	0.20450088	-0.10335022	-0.82077008	0.061223387	0.11986384	-1.3117355	0.20745318	-0.020959912	-0.80451688	0.080494812	0.032777408	-1.3676572	0.26751707	-0.058830229	-0.87839833	0.03812864	0.059731824	-0.98388742	0.36927483	-0.12002002	-0.76964829	0.44443432	0.14739088	-0.98340149	0.3555256	-0.00079875232	-0.8086852	0.43043797	0.025669828	-0.96524351	0.76148077	-0.12794371	-0.92110545	0.78950478	0.21243428	-0.88195721	0.81012638	-0.090808156	-0.84469238	0.83483184	0.1449108	-1.0489428	0.90443028	0.047132458	-0.91237702	1.3085808	-0.14043557	-0.91825609	1.2859756	0.22165985	-0.99057945	1.3393271	0.040889727	-0.92637258	0.98363302	-0.19712577	-1.028423	0.98933277	0.26984241	-0.73549671	0.82750649	-0.17564833	-0.93322449	0.77127259	0.31534844
61	0.24	-1.3346872	0.078741044	-0.065779864	-0.68717862	0.035964208	0.096515331	-1.3150029	0.20657624	-0.10285852	-0.82099663	0.061214788	0.11991146	-1.2977345	0.21013578	-0.020671101	-0.80459363	0.080616872	0.032932067	-1.3549264	0.26917696	-0.058265028	-0.87845968	0.038186376	0.05972823	-0.97054302	0.37029361	-0.1201168	-0.76765553	0.44386647	0.14821566	-0.97050293	0.35702858	-0.00048167851	-0.80638035	0.4304468	0.026598788	-0.9583047	0.76318647	-0.12728821	-0.91565314	0.79071526	0.2127085	-0.87544883	0.81214293	-0.090340933	-0.83857506	0.83613083	0.14562565	-1.0424358	0.90621051	0.047440182	-0.90650151	1.3103404	-0.14024263	-0.91187906	1.2879203	0.22185373	-0.98429689	1.3411267	0.041198837	-0.92161542	0.98545551	-0.19723152	-1.0205619	0.99069244	0.27080978	-0.7314898	0.82803129	-0.17576155	-0.92304274	0.7734915	0.31593767
62	0.244	-1.3191181	0.080376914	-0.065011889	-0.6873165	0.035974995	0.096689904	-1.3015286	0.20841859	-0.10232669	-0.82124914	0.061203	0.12000869	-1.282801	0.21281492	-0.020660818	-0.80469883	0.080753506	0.033124437	-1.3422304	0.27058022	-0.057664229	-0.8785196	0.038252291	0.05972542	-0.95719661	0.37147594	-0.12012475	-0.76569828	0.44339664	0.14897106	-0.95712698	0.35867247	-0.00020765642	-0.80421784	0.43056572	0.027450116	-0.95162526	0.76497102	-0.12679111	-0.90966385	0.79208687	0.21325693	-0.8690413	0.81415093	-0.090024036	-0.83240889	0.83745147	0.14639701	-1.0360743	0.90803701	0.047783158	-0.90070098	1.3121484	-0.14004857	-0.90555454	1.2899079	0.22206591	-0.9780539	1.3429309	0.041456061	-0.91687734	0.98732855	-0.19772424	-1.0127125	0.99209749	0.27175751	-0.7276572	0.82864721	-0.17588847	-0.91286982	0.77582535	0.31651966
63	0.248	-1.3032889	0.081756127	-0.064276165	-0.6874679	0.035989143	0.096893992	-1.2879003	0.20999631	-0.10173254	-0.82151328	0.061183656	0.12015585	-1.267863	0.21518221	-0.020581757	-0.80478858	0.080908103	0.03334929	-1.3295178	0.27171047	-0.057083497	-0.87857705	0.038327207	0.059728866	-0.94388974	0.37283673	-0.1200562	-0.76379462	0.44303534	0.14966466	-0.94347872	0.36042936	6.1084035e-05	-0.80213595	0.43078445	0.028185764	-0.94506995	0.76681528	-0.12639563	-0.90399651	0.79342865	0.21381167	-0.86270041	0.81615435	-0.089807789	-0.82607664	0.83881197	0.14725854	-1.0299152	0.90990762	0.047957441	-0.89495216	1.3140031	-0.13985412	-0.89926195	1.2919319	0.2222857	-0.97185051	1.344741	0.041672839	-0.91191726	0.98923422	-0.19810345	-1.0048813	0.99354704	0.27269125	-0.72386684	0.82935253	-0.1759997	-0.90270433	0.77827389	0.31710304
64	0.252	-1.2872569	0.082879992	-0.063603071	-0.68762445	0.036007622	0.097112638	-1.2740666	0.21130318	-0.10109174	-0.82178726	0.061163941	0.12034128	-1.2533649	0.21708072	-0.020265741	-0.80485759	0.081075506	0.033591992	-1.3166538	0.27253851	-0.056585698	-0.87863093	0.038410392	0.059742353	-0.93064132	0.37438499	-0.11993178	-0.76196181	0.44276858	0.15030658	-0.92987676	0.36227486	0.0003495406	-0.80011991	0.43107473	0.028809841	-0.93851594	0.76869076	-0.12606572	-0.89910018	0.7946291	0.21420478	-0.85639122	0.81815989	-0.08963753	-0.8195719	0.84021652	0.14822115	-1.0238832	0.91178154	0.048019441	-0.88923176	1.3159067	-0.13965101	-0.89300528	1.2939954	0.2225049	-0.96568504	1.3465615	0.041863741	-0.90671292	0.9911773	-0.19801183	-0.99707668	0.9950376	0.27360907	-0.72007136	0.83013729	-0.17608844	-0.89253929	0.78082851	0.31768645
